<?xml version="1.0" encoding="UTF-8"?>
<svg id="Capa_1" data-name="Capa 1" xmlns="http://www.w3.org/2000/svg" viewBox="0 0 85.71 85.71">
  <g id="_37_Undo" data-name="37_Undo">
    <path d="M51.24,38.66c0-1.07-.41-2.15-1.23-2.97l-16.78-16.78c-1.64-1.64-4.29-1.64-5.93,0l-16.78,16.78c-1.64,1.64-1.64,4.29,0,5.93s4.29,1.64,5.93,0l13.82-13.82,13.82,13.82c1.64,1.64,4.29,1.64,5.93,0,.82-.82,1.23-1.89,1.23-2.97Z" fill="#231f20"/>
    <path d="M76.42,42.85v-4.2c0-2.32-1.88-4.2-4.2-4.2s-4.2,1.88-4.2,4.2v4.2c0,9.26-7.53,16.78-16.78,16.78s-16.78-7.53-16.78-16.78v-20.98c0-2.32-1.88-4.2-4.2-4.2s-4.2,1.88-4.2,4.2v20.98c0,13.88,11.29,25.17,25.17,25.17,13.88,0,25.17-11.29,25.17-25.17Z" fill="#231f20"/>
  </g>
</svg>