<?xml version="1.0" encoding="UTF-8"?>
<svg id="Capa_1" data-name="Capa 1" xmlns="http://www.w3.org/2000/svg" viewBox="0 0 85.71 85.71">
  <g id="_01_Left" data-name="01_Left">
    <path d="M77.48,47.56H11.6c-2.6,0-4.71-2.11-4.71-4.71s2.11-4.71,4.71-4.71h65.87c2.6,0,4.71,2.11,4.71,4.71s-2.11,4.71-4.71,4.71Z" fill="#231f20"/>
    <path d="M30.43,66.38c-1.2,0-2.41-.46-3.33-1.38l-18.82-18.82c-1.84-1.84-1.84-4.82,0-6.65l18.82-18.82c1.84-1.84,4.82-1.84,6.65,0s1.84,4.82,0,6.65l-15.49,15.49,15.49,15.49c1.84,1.84,1.84,4.82,0,6.65-.92.92-2.12,1.38-3.33,1.38Z" fill="#231f20"/>
  </g>
</svg>