<?xml version="1.0" encoding="UTF-8"?>
<svg id="Capa_1" data-name="Capa 1" xmlns="http://www.w3.org/2000/svg" viewBox="0 0 85.71 85.71">
  <g id="_01_Left" data-name="01_Left">
    <path d="M38.15,75.79V9.92c0-2.6,2.11-4.71,4.71-4.71s4.71,2.11,4.71,4.71v65.87c0,2.6-2.11,4.71-4.71,4.71s-4.71-2.11-4.71-4.71Z" fill="#231f20"/>
    <path d="M19.33,28.74c0-1.2.46-2.41,1.38-3.33L39.53,6.59c1.84-1.84,4.82-1.84,6.65,0l18.82,18.82c1.84,1.84,1.84,4.82,0,6.65s-4.82,1.84-6.65,0l-15.49-15.49-15.49,15.49c-1.84,1.84-4.82,1.84-6.65,0-.92-.92-1.38-2.12-1.38-3.33Z" fill="#231f20"/>
  </g>
</svg>